<svg width="332" height="85" viewBox="0 0 332 85" fill="none" xmlns="http://www.w3.org/2000/svg">
<g clip-path="url(#clip0_42_216)">
<path d="M47.8274 81.2386V80.7548C47.8274 80.6767 47.8844 80.6143 47.9557 80.6143H49.5798C49.651 80.6143 49.708 80.6767 49.708 80.7548V81.738C49.708 84.0322 48.5825 84.9998 46.4598 84.9998C44.4795 84.9998 43.1831 84.1415 43.1831 81.738V77.6334C43.1831 75.3236 44.3371 74.4028 46.4598 74.4028C48.4685 74.4028 49.708 75.2455 49.708 77.6334V77.9611C49.708 78.0392 49.651 78.1016 49.5798 78.1016H47.9414C47.8702 78.1016 47.8132 78.0392 47.8132 77.9611V77.7114C47.8132 76.853 47.2291 76.4941 46.531 76.4941H46.3601C45.8899 76.4941 45.5765 76.6346 45.3628 76.9467C45.1634 77.2432 45.0921 77.6334 45.0921 78.1484V81.2386C45.0921 82.5964 45.7902 82.8929 46.3601 82.8929H46.531C47.4285 82.8929 47.799 82.2374 47.8274 81.2386ZM46.4313 75.3704C44.9069 75.3704 44.0236 75.9635 44.0236 77.8675V81.6287C44.0236 83.3611 44.8357 84.001 46.4313 84.001C47.9272 84.001 48.8247 83.4079 48.8247 81.6131C48.8247 81.4883 48.6537 81.4883 48.6537 81.6131C48.6537 83.1894 47.8702 83.8293 46.4313 83.8293C45.0351 83.8293 44.1804 83.2987 44.1804 81.6287V77.8675C44.1804 76.2444 44.8784 75.5421 46.4313 75.5421C48.4543 75.5421 48.5255 76.9467 48.5255 77.1028C48.5255 77.2432 48.725 77.2588 48.725 77.1028C48.725 75.8074 47.5283 75.3704 46.4313 75.3704ZM55.497 74.6369C55.5113 74.5901 55.5398 74.5432 55.5967 74.5432H57.3633C57.4203 74.5432 57.4488 74.5901 57.463 74.6369L59.9277 84.6721C59.9419 84.7657 59.8849 84.8438 59.7994 84.8438H58.1753C58.1326 84.8438 58.0899 84.8125 58.0756 84.7501L57.52 82.5652H55.44L54.8987 84.7501C54.8844 84.8125 54.8559 84.8438 54.7989 84.8438H53.1606C53.0751 84.8438 53.0181 84.7657 53.0324 84.6721L55.497 74.6369ZM55.8959 80.6299H57.0784L56.4658 78.2733L55.8959 80.6299ZM58.0899 81.5507L58.7452 83.8917C58.7737 83.9854 58.9304 83.9698 58.8877 83.8449L56.6082 75.5421C56.5655 75.3392 56.3233 75.3236 56.2806 75.5421L54.0724 83.8449C54.0296 83.9542 54.1863 84.001 54.2291 83.9073L54.8559 81.5507H58.0899ZM54.8987 81.3478L56.4515 75.6045L58.0329 81.3478H54.8987ZM67.1983 74.5432C68.1671 74.5432 68.8937 74.8398 69.378 75.4172C69.8054 75.9322 70.0191 76.697 70.0191 77.6334V81.7692C70.0191 83.6576 69.0219 84.8438 67.1983 84.8438H63.6367C63.5655 84.8438 63.5227 84.7813 63.5227 84.7033V74.6837C63.5227 74.6057 63.5655 74.5432 63.6367 74.5432H67.1983ZM68.1528 81.301V78.1016C68.1528 77.1184 67.6827 76.4941 66.6855 76.4941H65.4033V82.8929H66.6855C67.5402 82.8929 68.1528 82.2842 68.1528 81.301ZM64.3918 75.4952V83.8917C64.3918 83.9542 64.4488 83.9698 64.4773 83.9698H66.7994C68.4378 83.9698 69.1786 82.8929 69.1786 81.8941V77.8987C69.1786 76.2444 68.3808 75.4016 66.7567 75.4016H64.4773C64.4488 75.4016 64.3918 75.4172 64.3918 75.4952ZM69.0076 77.8987V81.8941C69.0076 83.1426 67.8679 83.7981 66.7994 83.7981H64.5627V75.6045H66.7567C68.2526 75.6045 69.0076 76.338 69.0076 77.8987ZM75.8936 74.6369C75.9079 74.5901 75.9364 74.5432 75.9934 74.5432H77.7599C77.8169 74.5432 77.8454 74.5901 77.8596 74.6369L80.3243 84.6721C80.3385 84.7657 80.2815 84.8438 80.1961 84.8438H78.572C78.5292 84.8438 78.4865 84.8125 78.4722 84.7501L77.9166 82.5652H75.8367L75.2953 84.7501C75.281 84.8125 75.2526 84.8438 75.1956 84.8438H73.5572C73.4717 84.8438 73.4148 84.7657 73.429 84.6721L75.8936 74.6369ZM76.2925 80.6299H77.475L76.8624 78.2733L76.2925 80.6299ZM78.4865 81.5507L79.1418 83.8917C79.1703 83.9854 79.327 83.9698 79.2843 83.8449L77.0049 75.5421C76.9621 75.3392 76.7199 75.3236 76.6772 75.5421L74.469 83.8449C74.4263 83.9542 74.583 84.001 74.6257 83.9073L75.2526 81.5507H78.4865ZM75.2953 81.3478L76.8482 75.6045L78.4295 81.3478H75.2953ZM93.9111 74.5432C95.4925 74.5432 96.447 75.5265 96.447 77.3525V79.3189C96.447 80.9889 95.5067 82.1126 93.9111 82.1126H92.7144V84.7033C92.7144 84.7813 92.6574 84.8438 92.5862 84.8438H90.9479C90.8909 84.8438 90.8481 84.7813 90.8481 84.7033V74.6837C90.8481 74.6057 90.8909 74.5432 90.9479 74.5432H93.9111ZM94.5807 78.8507V77.8207C94.5807 76.7438 94.1248 76.6346 93.1276 76.6346H92.7144V80.0681H93.1276C93.9111 80.0681 94.5807 79.912 94.5807 78.8507ZM95.5922 79.2097V77.2588C95.5922 75.5421 94.3812 75.4016 93.7259 75.4016H91.8026C91.7741 75.4016 91.7172 75.4484 91.7172 75.4952V83.8917C91.7172 84.001 91.8881 84.001 91.8881 83.8917V81.2386H93.5977C94.8514 81.2386 95.5922 80.7548 95.5922 79.2097ZM91.8881 75.6045H93.7259C95.3073 75.6045 95.407 76.7438 95.407 77.2588V79.2097C95.407 80.8016 94.4952 81.0201 93.5977 81.0201H91.8881V75.6045ZM101.837 74.6369C101.851 74.5901 101.88 74.5432 101.937 74.5432H103.703C103.76 74.5432 103.789 74.5901 103.803 74.6369L106.268 84.6721C106.282 84.7657 106.225 84.8438 106.14 84.8438H104.515C104.473 84.8438 104.43 84.8125 104.416 84.7501L103.86 82.5652H101.78L101.239 84.7501C101.225 84.8125 101.196 84.8438 101.139 84.8438H99.5007C99.4152 84.8438 99.3582 84.7657 99.3725 84.6721L101.837 74.6369ZM102.236 80.6299H103.418L102.806 78.2733L102.236 80.6299ZM104.43 81.5507L105.085 83.8917C105.114 83.9854 105.271 83.9698 105.228 83.8449L102.948 75.5421C102.906 75.3392 102.663 75.3236 102.621 75.5421L100.412 83.8449C100.37 83.9542 100.526 84.001 100.569 83.9073L101.196 81.5507H104.43ZM101.239 81.3478L102.792 75.6045L104.373 81.3478H101.239ZM102.35 72.764L102.578 71.4999C102.592 71.4375 102.635 71.4062 102.706 71.4062H103.803C103.931 71.4062 104.003 71.4843 103.917 71.6247L103.162 72.8109C103.119 72.9045 103.062 72.9201 103.02 72.9201H102.478C102.421 72.9201 102.336 72.8733 102.35 72.764ZM102.834 72.4051C102.777 72.5143 102.948 72.608 102.991 72.4831L103.191 71.8901C103.219 71.7808 103.062 71.6716 103.005 71.8276L102.834 72.4051ZM112.812 81.0981C112.741 81.0981 112.684 81.0357 112.684 80.9577V79.2877C112.684 79.2097 112.741 79.1473 112.812 79.1473H116.074C116.146 79.1473 116.203 79.2097 116.203 79.2877V81.738C116.203 84.0322 115.077 84.9998 112.954 84.9998C110.974 84.9998 109.678 84.1415 109.678 81.738V77.6334C109.678 75.3704 110.832 74.4028 112.954 74.4028C114.949 74.4028 116.203 75.2455 116.203 77.6334V77.9611C116.203 78.0392 116.146 78.1016 116.074 78.1016H114.436C114.365 78.1016 114.308 78.0392 114.308 77.9611V77.7582C114.308 76.8062 113.752 76.4941 113.026 76.4941H112.855C112.384 76.4941 112.071 76.6346 111.857 76.9467C111.658 77.2432 111.587 77.6334 111.587 78.1484V81.2386C111.587 82.5964 112.256 82.8929 112.855 82.8929H113.026C113.895 82.8929 114.308 82.2374 114.308 81.2386V81.0981H112.812ZM110.547 81.6287C110.547 83.3611 111.316 84.001 112.94 84.001C114.65 84.001 115.348 83.2206 115.348 81.301V80.1305C115.348 80.0837 115.319 80.0212 115.291 80.0212H113.31C113.182 80.0212 113.211 80.2241 113.31 80.2241H115.177V81.301C115.177 82.9709 114.593 83.8293 112.94 83.8293C111.572 83.8293 110.718 83.2987 110.718 81.6287V77.8675C110.718 76.26 111.387 75.5421 112.94 75.5421C114.094 75.5421 115.148 76.2444 115.063 77.3213C115.063 77.4461 115.22 77.4773 115.248 77.3369C115.248 75.9635 114.108 75.3704 112.94 75.3704C111.515 75.3704 110.547 75.9322 110.547 77.8675V81.6287ZM120.339 84.8438C120.268 84.8438 120.225 84.7813 120.225 84.7033V74.6837C120.225 74.6057 120.268 74.5432 120.339 74.5432H121.963C122.034 74.5432 122.091 74.6057 122.091 74.6837V84.7033C122.091 84.7813 122.034 84.8438 121.963 84.8438H120.339ZM121.08 75.4796V83.8917C121.08 84.0322 121.236 84.0322 121.236 83.8917V75.4796C121.236 75.3704 121.08 75.3704 121.08 75.4796ZM130.202 74.6837C130.202 74.6057 130.259 74.5432 130.331 74.5432H131.969C132.04 74.5432 132.097 74.6057 132.097 74.6837V84.7033C132.097 84.7813 132.04 84.8438 131.969 84.8438H130.388C130.331 84.8438 130.274 84.8125 130.259 84.7657L128.179 79.6311V84.7033C128.179 84.7813 128.123 84.8438 128.051 84.8438H126.427C126.356 84.8438 126.313 84.7813 126.313 84.7033V74.6837C126.313 74.6057 126.356 74.5432 126.427 74.5432H128.108C128.165 74.5432 128.194 74.5901 128.208 74.6213L130.202 79.6623V74.6837ZM131.228 83.9073V75.4796C131.228 75.3704 131.043 75.3392 131.043 75.4796V83.5016L127.325 75.4484C127.282 75.386 127.168 75.386 127.168 75.4796V83.8917C127.168 84.0322 127.339 84.0322 127.339 83.8917V75.8854L131.043 83.923C131.1 84.0322 131.228 84.001 131.228 83.9073ZM138.157 74.6369C138.171 74.5901 138.2 74.5432 138.257 74.5432H140.023C140.08 74.5432 140.109 74.5901 140.123 74.6369L142.588 84.6721C142.602 84.7657 142.545 84.8438 142.459 84.8438H140.835C140.793 84.8438 140.75 84.8125 140.736 84.7501L140.18 82.5652H138.1L137.559 84.7501C137.544 84.8125 137.516 84.8438 137.459 84.8438H135.821C135.735 84.8438 135.678 84.7657 135.692 84.6721L138.157 74.6369ZM138.556 80.6299H139.738L139.126 78.2733L138.556 80.6299ZM140.75 81.5507L141.405 83.8917C141.434 83.9854 141.59 83.9698 141.548 83.8449L139.268 75.5421C139.225 75.3392 138.983 75.3236 138.941 75.5421L136.732 83.8449C136.69 83.9542 136.846 84.001 136.889 83.9073L137.516 81.5507H140.75ZM137.559 81.3478L139.111 75.6045L140.693 81.3478H137.559ZM153.225 84.8438C153.154 84.8438 153.111 84.7813 153.111 84.7033V74.6837C153.111 74.6057 153.154 74.5432 153.225 74.5432H158.069C158.14 74.5432 158.197 74.6057 158.197 74.6837V76.3536C158.197 76.4317 158.14 76.4941 158.069 76.4941H154.992V78.6166H157.385C157.457 78.6166 157.499 78.679 157.499 78.7571V80.4582C157.499 80.5363 157.457 80.5987 157.385 80.5987H154.992V82.8929H158.069C158.14 82.8929 158.197 82.9553 158.197 83.0334V84.7033C158.197 84.7813 158.14 84.8438 158.069 84.8438H153.225ZM153.938 75.5265V83.8293C153.938 83.923 153.995 83.9542 154.052 83.9542H157.328C157.457 83.9542 157.428 83.7669 157.328 83.7669H154.123V79.6935H156.744C156.83 79.6935 156.83 79.475 156.744 79.475H154.123V75.6045H157.328C157.428 75.6045 157.457 75.4016 157.328 75.4016H154.052C153.995 75.4016 153.938 75.4484 153.938 75.5265ZM155.334 72.764L155.562 71.4999C155.576 71.4375 155.619 71.4062 155.69 71.4062H156.787C156.915 71.4062 156.987 71.4843 156.901 71.6247L156.146 72.8109C156.103 72.9045 156.046 72.9201 156.004 72.9201H155.462C155.405 72.9201 155.32 72.8733 155.334 72.764ZM155.818 72.4051C155.761 72.5143 155.932 72.608 155.975 72.4831L156.174 71.8901C156.203 71.7808 156.046 71.6716 155.989 71.8276L155.818 72.4051ZM173.665 81.2386V74.6837C173.665 74.6057 173.722 74.5432 173.793 74.5432H175.417C175.488 74.5432 175.545 74.6057 175.545 74.6837V81.738C175.545 83.9854 174.42 84.9998 172.297 84.9998C170.288 84.9998 169.035 84.1258 169.035 81.738V74.6837C169.035 74.6057 169.092 74.5432 169.163 74.5432H170.801C170.873 74.5432 170.929 74.6057 170.929 74.6837V81.2386C170.929 82.5964 171.628 82.8929 172.212 82.8929H172.383C173.266 82.8929 173.665 82.2374 173.665 81.2386ZM169.918 75.5421V81.6131C169.918 83.0178 170.787 84.0322 172.14 84.0322H172.497C173.85 84.0322 174.733 82.9709 174.733 81.6131V75.5421C174.733 75.4016 174.562 75.386 174.562 75.5421V81.6131C174.562 82.8929 173.722 83.8293 172.497 83.8293H172.14C170.944 83.8293 170.089 82.9865 170.089 81.6131V75.5421C170.089 75.4016 169.918 75.4016 169.918 75.5421ZM187.574 74.5432C187.646 74.5432 187.703 74.6057 187.703 74.6837V84.7033C187.703 84.7813 187.646 84.8438 187.574 84.8438H186.021C185.979 84.8438 185.908 84.7813 185.908 84.7033V78.9288L184.34 84.7501C184.312 84.8125 184.283 84.8438 184.226 84.8438H183.101C183.058 84.8438 183.001 84.8125 182.987 84.7501L181.52 78.8195V84.7033C181.52 84.7813 181.463 84.8438 181.391 84.8438H179.81C179.753 84.8438 179.71 84.7813 179.71 84.7033V74.6837C179.71 74.6057 179.753 74.5432 179.81 74.5432H181.805C181.862 74.5432 181.918 74.5901 181.933 74.6369L183.657 80.9577L185.551 74.6369C185.551 74.5901 185.594 74.5432 185.651 74.5432H187.574ZM186.691 83.8917C186.691 84.001 186.876 84.0322 186.876 83.8917V75.4796C186.876 75.4484 186.834 75.4016 186.791 75.4016H186.121C186.064 75.4016 186.05 75.4484 186.021 75.4796L183.657 83.205L181.306 75.464C181.306 75.4172 181.277 75.4016 181.235 75.4016H180.537C180.494 75.4016 180.451 75.4484 180.451 75.4952V83.8917C180.451 84.001 180.636 84.0322 180.636 83.8917V75.6045H181.163L183.571 83.5328C183.628 83.642 183.671 83.6108 183.742 83.5328L186.164 75.6045H186.691V83.8917ZM193.762 74.6369C193.777 74.5901 193.805 74.5432 193.862 74.5432H195.629C195.686 74.5432 195.714 74.5901 195.728 74.6369L198.193 84.6721C198.207 84.7657 198.15 84.8438 198.065 84.8438H196.441C196.398 84.8438 196.355 84.8125 196.341 84.7501L195.785 82.5652H193.705L193.164 84.7501C193.15 84.8125 193.121 84.8438 193.064 84.8438H191.426C191.34 84.8438 191.283 84.7657 191.298 84.6721L193.762 74.6369ZM194.161 80.6299H195.344L194.731 78.2733L194.161 80.6299ZM196.355 81.5507L197.01 83.8917C197.039 83.9854 197.196 83.9698 197.153 83.8449L194.873 75.5421C194.831 75.3392 194.589 75.3236 194.546 75.5421L192.338 83.8449C192.295 83.9542 192.452 84.001 192.494 83.9073L193.121 81.5507H196.355ZM193.164 81.3478L194.717 75.6045L196.298 81.3478H193.164ZM210.498 74.6369C210.512 74.5901 210.54 74.5432 210.597 74.5432H212.364C212.421 74.5432 212.449 74.5901 212.464 74.6369L214.928 84.6721C214.942 84.7657 214.885 84.8438 214.8 84.8438H213.176C213.133 84.8438 213.09 84.8125 213.076 84.7501L212.521 82.5652H210.441L209.899 84.7501C209.885 84.8125 209.856 84.8438 209.799 84.8438H208.161C208.076 84.8438 208.019 84.7657 208.033 84.6721L210.498 74.6369ZM210.896 80.6299H212.079L211.466 78.2733L210.896 80.6299ZM213.09 81.5507L213.746 83.8917C213.774 83.9854 213.931 83.9698 213.888 83.8449L211.609 75.5421C211.566 75.3392 211.324 75.3236 211.281 75.5421L209.073 83.8449C209.03 83.9542 209.187 84.001 209.23 83.9073L209.856 81.5507H213.09ZM209.899 81.3478L211.452 75.6045L213.033 81.3478H209.899ZM219.734 74.6369L221.301 81.0981L222.911 74.6369C222.94 74.5901 222.968 74.5432 223.025 74.5432H224.649C224.735 74.5432 224.792 74.6213 224.763 74.7149L222.299 84.7501C222.27 84.8125 222.242 84.8438 222.185 84.8438H220.418C220.375 84.8438 220.333 84.8125 220.318 84.7501L217.854 74.7149C217.839 74.6213 217.896 74.5432 217.982 74.5432H219.62C219.677 74.5432 219.706 74.5901 219.734 74.6369ZM221.273 83.7669L218.894 75.4484C218.851 75.3236 218.694 75.4016 218.737 75.4952L221.102 83.8293C221.159 84.0634 221.387 84.079 221.458 83.8293L223.737 75.4952C223.766 75.4016 223.609 75.3392 223.581 75.4484L221.273 83.7669ZM228.458 84.8438C228.387 84.8438 228.344 84.7813 228.344 84.7033V74.6837C228.344 74.6057 228.387 74.5432 228.458 74.5432H233.302C233.373 74.5432 233.43 74.6057 233.43 74.6837V76.3536C233.43 76.4317 233.373 76.4941 233.302 76.4941H230.225V78.6166H232.618C232.689 78.6166 232.732 78.679 232.732 78.7571V80.4582C232.732 80.5363 232.689 80.5987 232.618 80.5987H230.225V82.8929H233.302C233.373 82.8929 233.43 82.9553 233.43 83.0334V84.7033C233.43 84.7813 233.373 84.8438 233.302 84.8438H228.458ZM229.17 75.5265V83.8293C229.17 83.923 229.227 83.9542 229.284 83.9542H232.561C232.689 83.9542 232.661 83.7669 232.561 83.7669H229.356V79.6935H231.977C232.062 79.6935 232.062 79.475 231.977 79.475H229.356V75.6045H232.561C232.661 75.6045 232.689 75.4016 232.561 75.4016H229.284C229.227 75.4016 229.17 75.4484 229.17 75.5265ZM241.328 74.6837C241.328 74.6057 241.385 74.5432 241.456 74.5432H243.094C243.165 74.5432 243.222 74.6057 243.222 74.6837V84.7033C243.222 84.7813 243.165 84.8438 243.094 84.8438H241.513C241.456 84.8438 241.399 84.8125 241.385 84.7657L239.305 79.6311V84.7033C239.305 84.7813 239.248 84.8438 239.176 84.8438H237.552C237.481 84.8438 237.438 84.7813 237.438 84.7033V74.6837C237.438 74.6057 237.481 74.5432 237.552 74.5432H239.233C239.29 74.5432 239.319 74.5901 239.333 74.6213L241.328 79.6623V74.6837ZM242.353 83.9073V75.4796C242.353 75.3704 242.168 75.3392 242.168 75.4796V83.5016L238.45 75.4484C238.407 75.386 238.293 75.386 238.293 75.4796V83.8917C238.293 84.0322 238.464 84.0322 238.464 83.8917V75.8854L242.168 83.923C242.225 84.0322 242.353 84.001 242.353 83.9073ZM248.969 76.4941H246.946C246.874 76.4941 246.817 76.4317 246.817 76.3536V74.6837C246.817 74.6057 246.874 74.5432 246.946 74.5432H252.886C252.958 74.5432 253.015 74.6057 253.015 74.6837V76.3536C253.015 76.4317 252.958 76.4941 252.886 76.4941H250.863V84.7033C250.863 84.7813 250.806 84.8438 250.735 84.8438H249.097C249.026 84.8438 248.969 84.7813 248.969 84.7033V76.4941ZM252.017 75.4016H247.715C247.615 75.4016 247.615 75.6045 247.715 75.6045H249.823V83.8761C249.823 83.9854 250.009 83.9854 250.009 83.8761V75.6045H252.017C252.16 75.6045 252.146 75.4016 252.017 75.4016ZM261.14 81.2386V74.6837C261.14 74.6057 261.197 74.5432 261.268 74.5432H262.892C262.964 74.5432 263.021 74.6057 263.021 74.6837V81.738C263.021 83.9854 261.895 84.9998 259.772 84.9998C257.764 84.9998 256.51 84.1258 256.51 81.738V74.6837C256.51 74.6057 256.567 74.5432 256.638 74.5432H258.277C258.348 74.5432 258.405 74.6057 258.405 74.6837V81.2386C258.405 82.5964 259.103 82.8929 259.687 82.8929H259.858C260.741 82.8929 261.14 82.2374 261.14 81.2386ZM257.393 75.5421V81.6131C257.393 83.0178 258.262 84.0322 259.616 84.0322H259.972C261.325 84.0322 262.209 82.9709 262.209 81.6131V75.5421C262.209 75.4016 262.038 75.386 262.038 75.5421V81.6131C262.038 82.8929 261.197 83.8293 259.972 83.8293H259.616C258.419 83.8293 257.564 82.9865 257.564 81.6131V75.5421C257.564 75.4016 257.393 75.4016 257.393 75.5421ZM272.528 80.7704C272.329 81.223 272.044 81.5663 271.645 81.7692L272.841 84.6565C272.884 84.7501 272.827 84.8438 272.742 84.8438H270.989C270.932 84.8438 270.904 84.8125 270.89 84.7657L269.778 82.1126H269.052V84.7033C269.052 84.7813 268.995 84.8438 268.924 84.8438H267.285C267.228 84.8438 267.186 84.7813 267.186 84.7033V74.6837C267.186 74.6057 267.228 74.5432 267.285 74.5432H270.249C271.83 74.5432 272.784 75.5265 272.784 77.3525V79.3189C272.784 79.8652 272.699 80.3802 272.528 80.7704ZM270.918 78.8351V77.8207C270.918 76.7282 270.548 76.6189 269.465 76.6189H269.052V80.0681H269.465C270.363 80.0681 270.89 80.0525 270.918 78.8351ZM268.226 83.8917V81.223H270.277L271.474 83.923C271.502 84.001 271.673 83.9698 271.63 83.8293L270.434 81.1761C271.545 81.0045 271.93 80.3646 271.93 79.2097V77.2588C271.93 75.5421 270.505 75.4016 270.063 75.4016H268.14C268.112 75.4016 268.055 75.4484 268.055 75.4952V83.8917C268.055 84.001 268.226 84.001 268.226 83.8917ZM271.759 77.2588V79.2097C271.759 80.8016 270.833 81.0201 269.935 81.0201H268.226V75.6045H270.063C271.602 75.6045 271.759 76.7438 271.759 77.2588ZM278.687 74.6369C278.702 74.5901 278.73 74.5432 278.787 74.5432H280.554C280.611 74.5432 280.639 74.5901 280.653 74.6369L283.118 84.6721C283.132 84.7657 283.075 84.8438 282.99 84.8438H281.366C281.323 84.8438 281.28 84.8125 281.266 84.7501L280.71 82.5652H278.63L278.089 84.7501C278.075 84.8125 278.046 84.8438 277.989 84.8438H276.351C276.266 84.8438 276.209 84.7657 276.223 84.6721L278.687 74.6369ZM279.086 80.6299H280.269L279.656 78.2733L279.086 80.6299ZM281.28 81.5507L281.936 83.8917C281.964 83.9854 282.121 83.9698 282.078 83.8449L279.799 75.5421C279.756 75.3392 279.514 75.3236 279.471 75.5421L277.263 83.8449C277.22 83.9542 277.377 84.001 277.419 83.9073L278.046 81.5507H281.28ZM278.089 81.3478L279.642 75.6045L281.223 81.3478H278.089ZM288.522 81.7692H286.955C286.884 81.7692 286.827 81.7068 286.827 81.6287L286.442 74.6681C286.442 74.5432 286.514 74.5276 286.571 74.5276H288.893C288.993 74.5276 289.021 74.6057 289.021 74.6681L288.651 81.6287C288.651 81.7068 288.594 81.7692 288.522 81.7692ZM287.796 82.2374C288.508 82.2374 289.064 82.8305 289.064 83.5952C289.064 84.3599 288.508 84.9842 287.796 84.9842C287.112 84.9842 286.571 84.3599 286.571 83.5952C286.571 82.8305 287.112 82.2374 287.796 82.2374ZM287.668 75.464V80.8016C287.668 80.9264 287.853 80.942 287.853 80.8016V75.464C287.853 75.3236 287.668 75.3236 287.668 75.464ZM287.824 83.4391C287.71 83.4391 287.596 83.5328 287.596 83.6732C287.596 83.8137 287.71 83.9073 287.824 83.9073C287.953 83.9073 288.038 83.8137 288.038 83.6732C288.038 83.5328 287.953 83.4391 287.824 83.4391Z" fill="#18181B"/>
<path d="M10.809 39.3849V38.1146C12.1757 36.5267 12.9626 34.3944 12.9626 32.2167V20.6023C12.9626 18.3339 12.1757 16.2469 10.809 14.659V13.3887H29.114L29.3211 19.1051H27.3332C24.5585 16.7913 21.2039 15.521 17.6837 15.521H17.4353V25.5928H23.6474V27.8613H17.4353V37.2979H17.5181C20.9554 37.2979 24.2686 36.1184 27.0433 33.8046L27.3332 33.5323H29.3211L29.114 39.3395V39.3849H10.809ZM0 45.1467V43.8764C1.40807 42.2885 2.11211 40.1562 2.11211 37.9331V20.6023C2.11211 18.3792 1.40807 16.2469 0 14.659V13.3887H8.77975V14.659C7.41309 16.2469 6.66764 18.3792 6.66764 20.6023V43.0598H13.211C15.406 43.0598 17.4767 42.3339 19.2989 40.9274H20.5413V45.1467H0ZM32.22 45.1467V43.9218C33.5039 42.2431 34.3321 40.1108 34.3321 37.9785V20.6023C34.3321 18.4246 33.5039 16.2469 32.22 14.659V13.3887H40.9998V14.659C39.5917 16.2469 38.8048 18.4246 38.8048 20.6023V37.9785C38.8048 40.1108 39.5917 42.2431 40.9998 43.9218V45.1467H32.22ZM51.8502 45.1467V43.831C53.2583 42.2431 54.0038 40.0654 54.0038 37.8877V15.5664H50.2351C48.2886 15.5664 46.3836 16.4284 45.0169 18.0616H42.6978V13.3887H69.8239V18.0616H67.5047C66.2209 16.4284 64.2744 15.5664 62.328 15.5664H58.5593V37.8877C58.5593 40.0654 59.3047 42.2431 60.7128 43.831V45.1467H51.8502ZM66.5936 29.676V25.865C66.5936 24.6401 66.1795 23.4151 65.3926 22.5078L64.4401 21.4189V20.1486H73.3027V21.4189L72.2673 22.5078C71.4804 23.3244 71.1077 24.6401 71.1077 25.865V29.2223C71.1077 37.1165 74.5865 42.6061 79.5562 42.6061C85.7268 42.6061 88.5844 37.1165 88.5844 29.2223V18.3792C88.5844 17.0182 88.0046 15.6571 86.9692 14.7044V13.3887H91.9803V14.7044C90.9864 15.6571 90.448 17.0182 90.448 18.3792V29.2677C90.448 38.16 86.3066 45.3736 79.3491 45.3736C72.3501 45.3736 66.5936 40.5645 66.5936 29.676ZM94.5894 45.1467V43.9218L96.2046 42.0163C96.5359 41.608 96.7429 41.1089 96.7429 40.5645V18.0616C96.7429 17.5172 96.5359 16.9728 96.2046 16.6098L94.5894 14.7044V13.3887H107.552C112.604 13.3887 116.622 18.0616 116.29 23.6874C116.042 28.814 111.859 32.7611 107.262 32.7611H106.227L109.333 33.3962L113.723 39.4756C114.717 40.8367 115.959 42.107 117.284 43.1505L118.237 43.9218V45.1467H110.451V43.9218C111.072 43.0598 111.072 41.9255 110.451 41.1996L104.239 32.7611H101.257V41.3358L103.369 43.9218V45.1467H94.5894ZM101.257 31.2185H106.102C110.244 31.2185 113.598 27.5891 113.598 23.0522C113.598 18.5153 110.244 14.8858 106.102 14.8858H101.257V31.2185ZM119.189 45.1467V43.9218L121.053 41.7441C121.26 41.4719 121.384 41.245 121.55 40.8367L131.365 13.3887H135.838L145.694 40.746C145.86 41.1996 146.108 41.4719 146.44 41.7894L148.717 43.9218V45.1467H139.896V43.9218L140.103 43.7857C141.139 43.0144 141.511 41.6987 141.056 40.4284L139.151 35.1203H125.526L123.455 40.8367C123.082 41.9255 123.372 43.1505 124.159 43.9218V45.1467H119.189ZM126.188 33.3055H138.53L132.359 16.0654L126.188 33.3055Z" fill="#18181B"/>
<path d="M168.903 0H171.093V47.0177H168.903C167.607 47.0177 166.38 47.4591 165.399 48.246V3.83813C165.399 1.72718 166.976 0 168.903 0Z" fill="#18181B"/>
<path d="M193.811 13.1698L192.498 24.6124H188.671L187.357 13.1698L190.576 8.45605L193.811 13.1698Z" fill="#18181B"/>
<path d="M203.945 0H173.726V47.0118H207.443V3.83219C207.443 1.72718 205.866 0 203.945 0ZM197.819 29.1103C197.819 30.8374 196.538 32.2588 194.945 32.2588H194.813V37.4763C194.813 40.0491 192.925 42.1181 190.576 42.1181C188.244 42.1181 186.339 40.0491 186.339 37.4763V32.2588H186.208C184.631 32.2588 183.334 30.8374 183.334 29.1103V27.7609C183.334 26.0517 184.615 24.6304 186.175 24.6124L184.844 12.9539C184.812 12.612 184.894 12.2702 185.091 11.9823L189.591 5.39745C190.067 4.71377 191.102 4.71377 191.562 5.39745L196.078 11.9823C196.259 12.2702 196.357 12.612 196.308 12.9539L194.978 24.6124C196.554 24.6304 197.819 26.0517 197.819 27.7609V29.1103ZM194.945 27.3111H186.208C185.994 27.3111 185.797 27.509 185.797 27.7609V29.1103C185.797 29.3441 185.994 29.56 186.208 29.56H194.945C195.175 29.56 195.355 29.3441 195.355 29.1103V27.7609C195.355 27.509 195.175 27.3111 194.945 27.3111ZM188.802 37.4763C188.802 38.5558 189.607 39.4194 190.576 39.4194C191.562 39.4194 192.35 38.5558 192.35 37.4763V32.2588H188.802V37.4763Z" fill="#18181B"/>
<path d="M168.684 49.8965H207.443V57.5729H168.684C166.871 57.5729 165.399 55.9605 165.399 53.9746V53.4948C165.399 51.5089 166.871 49.8965 168.684 49.8965Z" fill="#18181B"/>
<path d="M226.382 39.8281V39.1483C229.158 39.2557 230.824 38.3612 231.411 37.9677C227.1 35.9999 224.063 31.4204 224.063 26.0538C224.063 18.8984 229.419 13.3887 236.049 13.3887C242.711 13.3887 248.165 18.8984 248.165 26.0538C248.165 33.1735 242.711 38.9694 236.049 38.9694C234.906 38.9694 233.73 38.719 232.652 38.4686C231.869 39.2199 231.117 39.4345 231.02 39.4703C231.15 39.4703 236.18 39.6492 241.274 40.8656C246.369 42.0463 247.577 38.6832 247.577 38.6832H248.655C248.655 38.6832 249.08 45.3736 243.201 45.3736C237.29 45.3736 234.808 42.8692 232.457 41.3665C230.04 39.8639 226.382 39.8281 226.382 39.8281ZM228.864 27.9858C230.628 34.3184 234.971 38.5759 239.217 37.4668C243.495 36.3219 245.52 30.3829 243.789 24.0503C242.058 17.7893 237.192 13.9253 232.914 15.0344C228.701 16.1435 227.133 21.7248 228.864 27.9858ZM252.084 26.4832V18.2186C252.084 17.2168 251.66 16.3224 251.072 15.5711L250.353 14.6767V13.6749H257.244V14.6767L256.591 15.5711C256.036 16.3224 255.611 17.2168 255.611 18.2186V26.1254C255.611 32.3506 258.355 36.6797 262.241 36.6797C267.107 36.6797 269.393 32.3506 269.393 26.1254V17.6462C269.393 16.5729 268.936 15.4638 268.152 14.7482V13.6749H272.039V14.7482C271.288 15.4638 270.83 16.5729 270.83 17.6462V26.1969C270.83 33.1735 267.597 38.8979 262.078 38.8979C256.624 38.8979 252.084 35.0697 252.084 26.4832ZM274.162 38.719V37.753C275.239 36.465 275.795 34.7835 275.795 33.0304V19.3635C275.795 17.6462 275.239 15.9289 274.162 14.6767V13.6749H290.328L290.524 18.2902H288.989C286.768 16.3582 284.09 15.3564 281.346 15.3564H279.387V25.7318H284.286V27.3776H279.387V37.0375H281.314C283.959 37.0375 286.507 36.0715 288.695 34.3542L288.989 34.1037H290.524L290.328 38.6474V38.719H274.162ZM292.548 36.5008V33.2093H294.345L295.88 35.1055C297.251 36.787 299.047 37.109 301.203 37.1448C303.783 37.1448 306.2 36.2146 306.2 33.8533C306.2 30.9553 301.627 28.1289 299.015 26.5189C296.761 25.1236 292.973 23.1559 292.973 20.1864C292.973 14.6767 299.309 13.6749 301.072 13.6749C303.26 13.6749 305.481 14.2115 307.833 15.2849L307.898 18.5406H306.036L304.959 17.1095C303.914 15.75 302.313 14.9629 300.746 14.9629C297.97 14.9629 296.435 17.1095 296.435 18.3259C296.435 20.8661 301.138 22.6908 305.71 25.9823C308.29 27.8427 309.466 30.0609 309.466 32.136C309.466 35.6421 306.232 38.8263 301.301 38.8263C295.324 38.8263 292.548 36.5008 292.548 36.5008ZM317.859 38.719V37.753C318.969 36.5008 319.557 34.8193 319.557 33.0662V15.3922H316.552C315.018 15.3922 313.515 16.0362 312.503 17.2884H310.674V13.6749H332V17.2884H330.236C329.191 16.0362 327.624 15.3922 326.121 15.3922H323.182V33.0662C323.182 34.8193 323.705 36.5008 324.815 37.753V38.719H317.859Z" fill="#18181B"/>
</g>
<defs>
<clipPath id="clip0_42_216">
<rect width="332" height="85" fill="white"/>
</clipPath>
</defs>
</svg>
